<svg xmlns="http://www.w3.org/2000/svg" version="1.1" xmlns:xlink="http://www.w3.org/1999/xlink" width="38" height="38"><svg xmlns="http://www.w3.org/2000/svg" version="1.1" xmlns:xlink="http://www.w3.org/1999/xlink" width="38" height="38"><svg version="1.2" xmlns="http://www.w3.org/2000/svg" viewBox="0 0 38 38" width="38" height="38">
	<style>
		.s0 { fill: #ffad64 } 
		.s1 { fill: #add4d3 } 
		.s2 { fill: #fb8351 } 
		.s3 { fill: #333237 } 
	</style>
	<g id="shape-36eeba44-e6ba-80d1-8007-995e874e8b2f">
		<g id="shape-36eeba44-e6ba-80d1-8007-995e874f866f">
			<g id="fills-36eeba44-e6ba-80d1-8007-995e874f866f">
				<path class="s0" d="m10.31 33.65l-3.25-5.63 4.77-8.24 3.03 5.25 17.91-0.01-5.08 8.71z"></path>
			</g>
		</g>
		<g id="shape-36eeba44-e6ba-80d1-8007-995e874f8670">
			<g id="fills-36eeba44-e6ba-80d1-8007-995e874f8670">
				<path class="s1" d="m35.96 19.43l-3.25 5.63-9.52-0.01 3.03-5.25-8.96-15.51 10.08 0.05z"></path>
			</g>
		</g>
		<g id="shape-36eeba44-e6ba-80d1-8007-995e874f8671">
			<g id="fills-36eeba44-e6ba-80d1-8007-995e874f8671">
				<path class="s2" d="m10.81 4.26h6.5l4.76 8.26h-6.07l-8.94 15.51-5.01-8.75z"></path>
			</g>
		</g>
		<g id="shape-36eeba44-e6ba-80d1-8007-995e874fe3d4">
			<g id="fills-36eeba44-e6ba-80d1-8007-995e874fe3d4">
				<path fill-rule="evenodd" class="s3" d="m28.12 3l9.39 16.43-2.46 4.25h0.05l-6.65 11.39-18.92-0.08-2.47-4.29-0.01 0.02-6.54-11.45 9.53-16.34h8.05l0.02 0.03zm-0.36 16.79l-2.25 3.89h6.45l2.46-4.26-7.86-13.75-6.91-0.03 4.73 8.21h-0.05zm-16.19-14.19l-7.98 13.68 3.47 6.06 0.52-0.9 7.64-13.26h4.47l-3.23-5.58zm4.06 18.09h6.79l2.25-3.9-3.43-5.93h-4.47l-3.41 5.9zm-4.55 8.63l15.84 0.07 3.49-5.99-9.54-0.01 0.01-0.02h-6.79l-2.27-3.92-1.92 3.33-1.3 2.25z"></path>
			</g>
		</g>
	</g>
</svg></svg><style>@media (prefers-color-scheme: light) { :root { filter: none; } }
@media (prefers-color-scheme: dark) { :root { filter: none; } }
</style></svg>